<?xml version="1.0" encoding="UTF-8" standalone="no"?>
<!DOCTYPE svg PUBLIC "-//W3C//DTD SVG 1.1//EN" "http://www.w3.org/Graphics/SVG/1.1/DTD/svg11.dtd">
<svg version="1.1" xmlns="http://www.w3.org/2000/svg" xmlns:xlink="http://www.w3.org/1999/xlink" preserveAspectRatio="xMidYMid meet" viewBox="0 0 640 640" width="640" height="640"><defs><path d="M49.3 29.84C49.23 28.25 48.52 27.01 47.94 26.24C48.62 24.55 48.88 21.88 46.61 19.81C44.95 18.3 42.12 17.62 38.21 17.81C35.46 17.93 33.16 18.44 33.07 18.47C33.07 18.47 33.06 18.47 33.06 18.47C32.54 18.56 31.98 18.67 31.42 18.8C31.38 18.13 31.49 16.47 32.72 12.72C34.19 8.27 34.1 4.86 32.45 2.58C30.72 0.19 27.95 0 27.13 0C26.35 0 25.62 0.32 25.11 0.92C23.95 2.27 24.09 4.76 24.23 5.91C22.85 9.61 18.99 18.68 15.71 21.2C15.65 21.25 15.6 21.3 15.55 21.35C14.58 22.37 13.94 23.46 13.5 24.42C12.88 24.09 12.18 23.9 11.43 23.9C10.79 23.9 5.69 23.9 5.05 23.9C2.64 23.9 0.7 25.86 0.7 28.25C0.7 29.95 0.7 43.54 0.7 45.24C0.7 47.65 2.65 49.59 5.05 49.59C5.69 49.59 10.79 49.59 11.43 49.59C12.36 49.59 13.22 49.3 13.94 48.8C14.18 48.83 16.15 49.06 16.39 49.09C16.77 49.14 23.46 49.99 30.33 49.85C31.57 49.95 32.75 50 33.83 50C35.7 50 37.34 49.85 38.69 49.56C41.89 48.88 44.08 47.52 45.19 45.52C46.03 44 46.03 42.48 45.9 41.52C47.98 39.64 48.35 37.56 48.27 36.09C48.23 35.25 48.04 34.53 47.84 33.99C48.87 32.69 49.36 31.28 49.3 29.84ZM3.52 45.24C3.52 43.54 3.52 29.94 3.52 28.24C3.52 27.39 4.21 26.71 5.05 26.71C5.69 26.71 10.79 26.71 11.43 26.71C12.27 26.71 12.95 27.4 12.95 28.24C12.95 29.94 12.95 43.53 12.95 45.23C12.95 46.08 12.26 46.76 11.43 46.76C11 46.76 8.87 46.76 5.05 46.76L5.05 46.77C4.03 46.31 3.52 45.8 3.52 45.24ZM44.98 34.47C44.98 34.48 45.41 35.22 45.46 36.22C45.53 37.59 44.87 38.8 43.49 39.84C43 40.21 42.8 40.86 43.01 41.45C43.01 41.46 43.46 42.84 42.73 44.14C42.03 45.4 40.47 46.3 38.11 46.8C36.22 47.21 33.64 47.28 30.49 47.03C30.44 47.03 30.39 47.03 30.34 47.03C23.62 47.18 16.82 46.3 16.75 46.29C16.75 46.29 16.74 46.29 16.74 46.29C16.1 46.21 15.75 46.17 15.68 46.16C15.74 45.87 15.78 45.56 15.78 45.24C15.78 43.54 15.78 29.94 15.78 28.24C15.78 27.79 15.7 27.35 15.58 26.94C15.76 26.24 16.29 24.69 17.52 23.36C22.22 19.64 26.81 7.08 27 6.53C27.09 6.32 27.11 6.07 27.07 5.83C26.89 4.66 26.95 3.23 27.2 2.8C27.76 2.81 29.25 2.97 30.15 4.21C31.22 5.69 31.18 8.32 30.03 11.82C28.27 17.14 28.12 19.94 29.51 21.17C30.2 21.79 31.12 21.82 31.79 21.58C32.43 21.43 33.04 21.31 33.61 21.22C33.65 21.2 33.71 21.19 33.75 21.18C36.96 20.48 42.71 20.05 44.71 21.87C46.4 23.42 45.2 25.47 45.06 25.69C44.68 26.28 44.79 27.04 45.31 27.51C45.32 27.52 46.42 28.56 46.47 29.95C46.52 30.88 46.08 31.83 45.17 32.77C44.73 33.23 44.64 33.93 44.98 34.47Z" id="i3dZj7kObq"></path></defs><g><g><g><g><filter id="shadow11606455" x="-8.3" y="-9" width="67.6" height="69" filterUnits="userSpaceOnUse" primitiveUnits="userSpaceOnUse"><feFlood></feFlood><feComposite in2="SourceAlpha" operator="in"></feComposite><feGaussianBlur stdDeviation="1"></feGaussianBlur><feOffset dx="1" dy="1" result="afterOffset"></feOffset><feFlood flood-color="#000000" flood-opacity="0.75"></feFlood><feComposite in2="afterOffset" operator="in"></feComposite><feMorphology operator="dilate" radius="1"></feMorphology><feComposite in2="SourceAlpha" operator="out"></feComposite></filter><path d="M49.3 29.84C49.23 28.25 48.52 27.01 47.94 26.24C48.62 24.55 48.88 21.88 46.61 19.81C44.95 18.3 42.12 17.62 38.21 17.81C35.46 17.93 33.16 18.44 33.07 18.47C33.07 18.47 33.06 18.47 33.06 18.47C32.54 18.56 31.98 18.67 31.42 18.8C31.38 18.13 31.49 16.47 32.72 12.72C34.19 8.27 34.1 4.86 32.45 2.58C30.72 0.19 27.95 0 27.13 0C26.35 0 25.62 0.32 25.11 0.92C23.95 2.27 24.09 4.76 24.23 5.91C22.85 9.61 18.99 18.68 15.71 21.2C15.65 21.25 15.6 21.3 15.55 21.35C14.58 22.37 13.94 23.46 13.5 24.42C12.88 24.09 12.18 23.9 11.43 23.9C10.79 23.9 5.69 23.9 5.05 23.9C2.64 23.9 0.7 25.86 0.7 28.25C0.7 29.95 0.7 43.54 0.7 45.24C0.7 47.65 2.65 49.59 5.05 49.59C5.69 49.59 10.79 49.59 11.43 49.59C12.36 49.59 13.22 49.3 13.94 48.8C14.18 48.83 16.15 49.06 16.39 49.09C16.77 49.14 23.46 49.99 30.33 49.85C31.57 49.95 32.75 50 33.83 50C35.7 50 37.34 49.85 38.69 49.56C41.89 48.88 44.08 47.52 45.19 45.52C46.03 44 46.03 42.48 45.9 41.52C47.98 39.64 48.35 37.56 48.27 36.09C48.23 35.25 48.04 34.53 47.84 33.99C48.87 32.69 49.36 31.28 49.3 29.84ZM3.52 45.24C3.52 43.54 3.52 29.94 3.52 28.24C3.52 27.39 4.21 26.71 5.05 26.71C5.69 26.71 10.79 26.71 11.43 26.71C12.27 26.71 12.95 27.4 12.95 28.24C12.95 29.94 12.95 43.53 12.95 45.23C12.95 46.08 12.26 46.76 11.43 46.76C11 46.76 8.87 46.76 5.05 46.76L5.05 46.77C4.03 46.31 3.52 45.8 3.52 45.24ZM44.98 34.47C44.98 34.48 45.41 35.22 45.46 36.22C45.53 37.59 44.87 38.8 43.49 39.84C43 40.21 42.8 40.86 43.01 41.45C43.01 41.46 43.46 42.84 42.73 44.14C42.03 45.4 40.47 46.3 38.11 46.8C36.22 47.21 33.64 47.28 30.49 47.03C30.44 47.03 30.39 47.03 30.34 47.03C23.62 47.18 16.82 46.3 16.75 46.29C16.75 46.29 16.74 46.29 16.74 46.29C16.1 46.21 15.75 46.17 15.68 46.16C15.74 45.87 15.78 45.56 15.78 45.24C15.78 43.54 15.78 29.94 15.78 28.24C15.78 27.79 15.7 27.35 15.58 26.94C15.76 26.24 16.29 24.69 17.52 23.36C22.22 19.64 26.81 7.08 27 6.53C27.09 6.32 27.11 6.07 27.07 5.83C26.89 4.66 26.95 3.23 27.2 2.8C27.76 2.81 29.25 2.97 30.15 4.21C31.22 5.69 31.18 8.32 30.03 11.82C28.27 17.14 28.12 19.94 29.51 21.17C30.2 21.79 31.12 21.82 31.79 21.58C32.43 21.43 33.04 21.31 33.61 21.22C33.65 21.2 33.71 21.19 33.75 21.18C36.96 20.48 42.71 20.05 44.71 21.87C46.4 23.42 45.2 25.47 45.06 25.69C44.68 26.28 44.79 27.04 45.31 27.51C45.32 27.52 46.42 28.56 46.47 29.95C46.52 30.88 46.08 31.83 45.17 32.77C44.73 33.23 44.64 33.93 44.98 34.47Z" id="i1hIxrNjnh" fill="white" fill-opacity="1" filter="url(#shadow11606455)"></path></g><use xlink:href="#i3dZj7kObq" opacity="1" fill="#2125d5" fill-opacity="1"></use><g><use xlink:href="#i3dZj7kObq" opacity="1" fill-opacity="0" stroke="#000000" stroke-width="1" stroke-opacity="0"></use></g><g><use xlink:href="#i3dZj7kObq" opacity="1" fill-opacity="0" stroke="#000000" stroke-width="1" stroke-opacity="0"></use></g></g></g></g></svg>